<mxfile host="65bd71144e">
    <diagram id="n82wr6HyWtuxYF5H4FkH" name="hex-arch">
        <mxGraphModel dx="664" dy="552" grid="1" gridSize="10" guides="1" tooltips="1" connect="1" arrows="1" fold="1" page="1" pageScale="1" pageWidth="827" pageHeight="1169" math="0" shadow="0">
            <root>
                <mxCell id="0"/>
                <mxCell id="1" parent="0"/>
                <mxCell id="J82R_KNUIGllpc8dS4SY-16" value="" style="ellipse;whiteSpace=wrap;html=1;aspect=fixed;fillColor=#B266FF;" parent="1" vertex="1">
                    <mxGeometry x="133" y="304" width="561.71" height="561.71" as="geometry"/>
                </mxCell>
                <mxCell id="J82R_KNUIGllpc8dS4SY-14" value="" style="shape=hexagon;perimeter=hexagonPerimeter2;whiteSpace=wrap;html=1;fixedSize=1;aspect=fixed;fillColor=#FF8000;fontFamily=Lucida Console;fontStyle=1" parent="1" vertex="1">
                    <mxGeometry x="223.69000000000003" y="459.85" width="380.34" height="250" as="geometry"/>
                </mxCell>
                <mxCell id="J82R_KNUIGllpc8dS4SY-2" value="" style="shape=hexagon;perimeter=hexagonPerimeter2;whiteSpace=wrap;html=1;fixedSize=1;aspect=fixed;fontFamily=Lucida Console;fillColor=#3399FF;" parent="1" vertex="1">
                    <mxGeometry x="279.65" y="496.64" width="268.42" height="176.43" as="geometry"/>
                </mxCell>
                <mxCell id="J82R_KNUIGllpc8dS4SY-11" style="rounded=0;orthogonalLoop=1;jettySize=auto;html=1;fontFamily=Lucida Console;" parent="1" edge="1">
                    <mxGeometry relative="1" as="geometry">
                        <mxPoint x="346.66231722210034" y="567.2534561371713" as="sourcePoint"/>
                        <mxPoint x="371.7876702471675" y="575.5822493018651" as="targetPoint"/>
                    </mxGeometry>
                </mxCell>
                <mxCell id="J82R_KNUIGllpc8dS4SY-3" value="input" style="fontStyle=1;labelPosition=right;verticalLabelPosition=middle;align=left;verticalAlign=middle;spacingLeft=2;rotation=16;fontFamily=Lucida Console;fontColor=#FFFFFF;" parent="1" vertex="1">
                    <mxGeometry x="294.15" y="546.85" width="10" height="10" as="geometry"/>
                </mxCell>
                <mxCell id="J82R_KNUIGllpc8dS4SY-4" value="" style="pointerEvents=1;verticalLabelPosition=bottom;shadow=0;dashed=0;align=center;html=1;verticalAlign=top;shape=mxgraph.electrical.miscellaneous.adapter;rotation=15;fontFamily=Lucida Console;" parent="1" vertex="1">
                    <mxGeometry x="266.15" y="536.85" width="30" height="20" as="geometry"/>
                </mxCell>
                <mxCell id="J82R_KNUIGllpc8dS4SY-8" value="output" style="fontStyle=1;labelPosition=left;verticalLabelPosition=middle;align=right;verticalAlign=middle;spacingLeft=2;rotation=15;fontFamily=Lucida Console;fontColor=#FFFFFF;" parent="1" vertex="1">
                    <mxGeometry x="524.15" y="615.85" width="10" height="10" as="geometry"/>
                </mxCell>
                <mxCell id="J82R_KNUIGllpc8dS4SY-9" value="" style="pointerEvents=1;verticalLabelPosition=bottom;shadow=0;dashed=0;align=center;html=1;verticalAlign=top;shape=mxgraph.electrical.miscellaneous.adapter;rotation=193;fontFamily=Lucida Console;" parent="1" vertex="1">
                    <mxGeometry x="545.5699999999999" y="619.85" width="30" height="20" as="geometry"/>
                </mxCell>
                <mxCell id="J82R_KNUIGllpc8dS4SY-12" style="edgeStyle=none;rounded=0;orthogonalLoop=1;jettySize=auto;html=1;fontFamily=Lucida Console;exitX=0.974;exitY=0.72;exitDx=0;exitDy=0;exitPerimeter=0;strokeWidth=1;endSize=6;startSize=6;jumpSize=6;" parent="1" edge="1">
                    <mxGeometry relative="1" as="geometry">
                        <mxPoint x="451.7800000000001" y="602.4499999999999" as="sourcePoint"/>
                        <mxPoint x="473.15" y="606.85" as="targetPoint"/>
                    </mxGeometry>
                </mxCell>
                <mxCell id="J82R_KNUIGllpc8dS4SY-10" value="Domain Rules" style="ellipse;whiteSpace=wrap;html=1;aspect=fixed;fontFamily=Lucida Console;fontStyle=1" parent="1" vertex="1">
                    <mxGeometry x="373.85999999999996" y="544.85" width="80" height="80" as="geometry"/>
                </mxCell>
                <mxCell id="J82R_KNUIGllpc8dS4SY-13" value="Domain" style="text;html=1;strokeColor=none;fillColor=none;align=center;verticalAlign=middle;whiteSpace=wrap;rounded=0;fontFamily=Lucida Console;fontStyle=1;fontColor=#FFFFFF;" parent="1" vertex="1">
                    <mxGeometry x="379.85999999999996" y="505.85" width="68" height="30" as="geometry"/>
                </mxCell>
                <mxCell id="J82R_KNUIGllpc8dS4SY-15" value="Application/Adapters" style="text;html=1;strokeColor=none;fillColor=none;align=center;verticalAlign=middle;whiteSpace=wrap;rounded=0;fontFamily=Lucida Console;fontStyle=1;fontColor=#FFFFFF;" parent="1" vertex="1">
                    <mxGeometry x="334.09999999999997" y="459.85" width="159.51" height="30" as="geometry"/>
                </mxCell>
                <mxCell id="J82R_KNUIGllpc8dS4SY-17" value="External World" style="text;html=1;strokeColor=none;fillColor=none;align=center;verticalAlign=middle;whiteSpace=wrap;rounded=0;fontFamily=Lucida Console;fontStyle=1;fontColor=#FFFFFF;fontSize=14;" parent="1" vertex="1">
                    <mxGeometry x="383.85999999999996" y="374.85" width="60" height="30" as="geometry"/>
                </mxCell>
                <mxCell id="J82R_KNUIGllpc8dS4SY-18" value="Http" style="text;html=1;strokeColor=none;fillColor=none;align=center;verticalAlign=middle;whiteSpace=wrap;rounded=0;fontFamily=Lucida Console;fontStyle=1;fontColor=#FFFFFF;fontSize=14;" parent="1" vertex="1">
                    <mxGeometry x="163.68999999999997" y="502.85" width="60" height="30" as="geometry"/>
                </mxCell>
                <mxCell id="J82R_KNUIGllpc8dS4SY-19" value="Database" style="text;html=1;strokeColor=none;fillColor=none;align=center;verticalAlign=middle;whiteSpace=wrap;rounded=0;fontFamily=Lucida Console;fontStyle=1;fontColor=#FFFFFF;fontSize=14;" parent="1" vertex="1">
                    <mxGeometry x="608.03" y="628.85" width="60" height="30" as="geometry"/>
                </mxCell>
                <mxCell id="J82R_KNUIGllpc8dS4SY-25" value="External World" style="text;html=1;strokeColor=none;fillColor=none;align=center;verticalAlign=middle;whiteSpace=wrap;rounded=0;fontFamily=Lucida Console;fontStyle=1;fontColor=#FFFFFF;fontSize=14;" parent="1" vertex="1">
                    <mxGeometry x="383.85999999999996" y="759.85" width="60" height="30" as="geometry"/>
                </mxCell>
            </root>
        </mxGraphModel>
    </diagram>
</mxfile>